# xmcd CD database file
#
# Track frame offsets:
#	150
#	15622
#	29031
#	44841
#	61340
#	83290
#	97487
#	111701
#	126958
#	145279
#	162807
#	184454
#	206689
#	229217
#
# Disc length: 3344 seconds
#
# Revision: 3
# Processed by: cddbd v1.5.1PL0 Copyright (c) Steve Scherf et al.
# Submitted via: CDex 1.51
#
DISCID=d60d0e0e
DTITLE=Fairplay - Country mit Cöpfchen
DYEAR=1999
DGENRE=Country
TTITLE0=Cowboys haben's schwer
TTITLE1=Unten im Gras
TTITLE2=Das Chaos hat zwei Beine
TTITLE3=Ganz egal
TTITLE4=Ein Anderer
TTITLE5=Der erste Tag
TTITLE6=Herz verlor'n?
TTITLE7=Frauen sind Frauen
TTITLE8=Laut, dreckig und heiß
TTITLE9=Der Goodbye-Blues
TTITLE10=Das traurigste Lied
TTITLE11=Apfeltraum
TTITLE12=Am Fenster -  OBS
TTITLE13=Über sieben Brücken
EXTD=YEAR: 1999
EXTT0=
EXTT1=
EXTT2=
EXTT3=
EXTT4=
EXTT5=
EXTT6=
EXTT7=
EXTT8=
EXTT9=
EXTT10=
EXTT11=
EXTT12=
EXTT13=
PLAYORDER=
